<?xml version="1.0" encoding="UTF-8"?>
<!DOCTYPE svg PUBLIC "-//W3C//DTD SVG 1.1//EN" "http://www.w3.org/Graphics/SVG/1.1/DTD/svg11.dtd">
<svg xmlns="http://www.w3.org/2000/svg" version="1.1" width="96px" height="96px" style="shape-rendering:geometricPrecision; text-rendering:geometricPrecision; image-rendering:optimizeQuality; fill-rule:evenodd; clip-rule:evenodd" xmlns:xlink="http://www.w3.org/1999/xlink">
<g><path style="opacity:0.842" fill="#20c98c" d="M 20.5,6.5 C 31.3056,5.11987 40.3056,8.45321 47.5,16.5C 58.4409,5.48897 70.7742,3.65563 84.5,11C 92.9514,18.2907 96.118,27.4573 94,38.5C 87.6001,61.5753 73.7668,78.742 52.5,90C 50.2462,91.1505 47.9129,91.4838 45.5,91C 26.6286,81.761 12.7953,67.5943 4,48.5C -0.980087,37.6203 -0.646753,26.9536 5,16.5C 9.20526,11.4922 14.3719,8.15886 20.5,6.5 Z M 17.5,49.5 C 3.92254,43.0398 0.755874,33.0398 8,19.5C 17.2428,9.47209 27.7428,7.97209 39.5,15C 42.0691,18.0123 44.7358,20.8457 47.5,23.5C 50.6327,19.5361 54.2994,16.0361 58.5,13C 71.7045,7.95627 81.8712,11.4563 89,23.5C 90.3929,28.0947 90.7262,32.7613 90,37.5C 82.9432,46.9663 74.1098,54.4663 63.5,60C 58.6195,59.3926 53.7862,59.5592 49,60.5C 47.7879,63.8342 48.6212,66.3342 51.5,68C 49.6266,70.2089 47.46,72.0422 45,73.5C 44.2189,74.7287 43.7189,76.062 43.5,77.5C 45.2347,80.7434 47.5681,83.5767 50.5,86C 49.5,86.5 48.5,87 47.5,87.5C 42.7743,85.812 38.7743,83.1454 35.5,79.5C 39.0905,77.0791 41.7572,73.9124 43.5,70C 41.2726,66.3551 38.2726,63.3551 34.5,61C 37.4629,58.7294 38.1295,55.8961 36.5,52.5C 31.543,51.8936 26.543,51.727 21.5,52C 19.9336,51.3918 18.6002,50.5585 17.5,49.5 Z M 33.5,65.5 C 31.5544,66.0347 30.5544,67.368 30.5,69.5C 28.5891,69.5743 27.4224,70.5743 27,72.5C 19.5631,65.8812 13.8964,58.2146 10,49.5C 13.9123,52.5409 18.0789,55.2076 22.5,57.5C 26.1104,56.3417 29.7771,55.8417 33.5,56C 31.5643,56.813 29.5643,57.313 27.5,57.5C 28.3453,61.0146 30.3453,63.6813 33.5,65.5 Z M 85.5,49.5 C 79.7776,62.2291 71.1109,72.5625 59.5,80.5C 58.9744,78.7697 57.9744,77.4363 56.5,76.5C 55.9522,74.4677 54.6188,73.4677 52.5,73.5C 54.986,71.8448 56.986,69.6781 58.5,67C 57.0082,65.115 55.0082,64.115 52.5,64C 56.8261,64.0932 61.1595,64.0932 65.5,64C 72.8845,60.1094 79.5511,55.2761 85.5,49.5 Z"/></g>
<g><path style="opacity:0.877" fill="#20c98d" d="M 58.5,20.5 C 65.175,20.3337 71.8417,20.5004 78.5,21C 80.519,21.4497 82.3523,22.283 84,23.5C 84.889,27.1516 85.2224,30.8183 85,34.5C 80.2282,36.7037 79.3949,39.8704 82.5,44C 80.8071,46.9517 78.9738,47.1183 77,44.5C 76.3333,41.1667 76.3333,37.8333 77,34.5C 78.586,33.624 80.086,32.624 81.5,31.5C 80.6518,29.5914 80.3184,27.5914 80.5,25.5C 72.5,22.8333 64.5,22.8333 56.5,25.5C 56.6816,27.5914 56.3482,29.5914 55.5,31.5C 56.914,32.624 58.414,33.624 60,34.5C 60.1667,36.1667 60.3333,37.8333 60.5,39.5C 58.8648,45.101 57.5315,50.7677 56.5,56.5C 55.5,56.5 54.5,56.5 53.5,56.5C 52.962,50.6886 53.962,45.1886 56.5,40C 55.0402,37.1366 53.3735,34.4699 51.5,32C 52.0539,29.1764 52.5539,26.343 53,23.5C 54.8761,22.3913 56.7095,21.3913 58.5,20.5 Z"/></g>
<g><path style="opacity:0.829" fill="#1fc88c" d="M 17.5,49.5 C 17.267,44.9655 18.1003,40.6322 20,36.5C 20.4993,31.5111 20.6659,26.5111 20.5,21.5C 24.0259,23.0281 27.6926,24.0281 31.5,24.5C 35.0992,24.7794 38.2658,23.7794 41,21.5C 41.772,21.6448 42.4387,21.9781 43,22.5C 43.6667,27.8333 43.6667,33.1667 43,38.5C 42.2935,40.0806 41.4601,41.5806 40.5,43C 43.126,47.0918 44.126,51.5918 43.5,56.5C 42.1667,56.5 40.8333,56.5 39.5,56.5C 39.9995,51.6536 38.9995,47.1536 36.5,43C 39.268,38.1646 40.1013,32.998 39,27.5C 34,28.8333 29,28.8333 24,27.5C 24.024,35.0546 22.8573,42.388 20.5,49.5C 19.5,49.5 18.5,49.5 17.5,49.5 Z"/></g>
<g><path style="opacity:0.745" fill="#20c98b" d="M 62.5,29.5 C 63.5,29.5 64.5,29.5 65.5,29.5C 65.5,30.5 65.5,31.5 65.5,32.5C 64.5,32.5 63.5,32.5 62.5,32.5C 62.5,31.5 62.5,30.5 62.5,29.5 Z"/></g>
<g><path style="opacity:0.745" fill="#20c98b" d="M 71.5,29.5 C 72.5,29.5 73.5,29.5 74.5,29.5C 74.5,30.5 74.5,31.5 74.5,32.5C 73.5,32.5 72.5,32.5 71.5,32.5C 71.5,31.5 71.5,30.5 71.5,29.5 Z"/></g>
<g><path style="opacity:0.68" fill="#22d297" d="M 33.5,30.5 C 34.8333,30.5 36.1667,30.5 37.5,30.5C 37.5,31.8333 37.5,33.1667 37.5,34.5C 36.1667,34.5 34.8333,34.5 33.5,34.5C 33.5,33.1667 33.5,31.8333 33.5,30.5 Z"/></g>
<g><path style="opacity:0.836" fill="#20c88c" d="M 26.5,30.5 C 27.5,30.5 28.5,30.5 29.5,30.5C 29.5,31.8333 29.5,33.1667 29.5,34.5C 28.5,34.5 27.5,34.5 26.5,34.5C 26.5,33.1667 26.5,31.8333 26.5,30.5 Z"/></g>
<g><path style="opacity:0.718" fill="#20c98c" d="M 66.5,35.5 C 67.8333,35.5 69.1667,35.5 70.5,35.5C 70.5,36.5 70.5,37.5 70.5,38.5C 69.1667,38.5 67.8333,38.5 66.5,38.5C 66.5,37.5 66.5,36.5 66.5,35.5 Z"/></g>
</svg>
